HIERARCHY
ROOT Hips
{
	OFFSET 0.00000 0.00000 0.00000
	CHANNELS 6 Xposition Yposition Zposition Zrotation Yrotation Xrotation 
	JOINT LHipJoint
	{
		OFFSET 0 0 0
		CHANNELS 3 Zrotation Yrotation Xrotation
		JOINT LeftUpLeg
		{
			OFFSET 1.61328 -1.70571 0.84375
			CHANNELS 3 Zrotation Yrotation Xrotation
			JOINT LeftLeg
			{
				OFFSET 2.32400 -6.38513 0.00000
				CHANNELS 3 Zrotation Yrotation Xrotation
				JOINT LeftFoot
				{
					OFFSET 2.58843 -7.11166 0.00000
					CHANNELS 3 Zrotation Yrotation Xrotation
					JOINT LeftToeBase
					{
						OFFSET 0.17200 -0.47257 2.47970
						CHANNELS 3 Zrotation Yrotation Xrotation
						End Site
						{
							OFFSET 0.00000 -0.00000 1.26912
						}
					}
				}
			}
		}
	}
	JOINT RHipJoint
	{
		OFFSET 0 0 0
		CHANNELS 3 Zrotation Yrotation Xrotation
		JOINT RightUpLeg
		{
			OFFSET -1.49930 -1.70570 0.84375
			CHANNELS 3 Zrotation Yrotation Xrotation
			JOINT RightLeg
			{
				OFFSET -2.30458 -6.33178 0.00000
				CHANNELS 3 Zrotation Yrotation Xrotation
				JOINT RightFoot
				{
					OFFSET -2.62261 -7.20556 0.00000
					CHANNELS 3 Zrotation Yrotation Xrotation
					JOINT RightToeBase
					{
						OFFSET -0.18709 -0.51403 2.51340
						CHANNELS 3 Zrotation Yrotation Xrotation
						End Site
						{
							OFFSET -0.00000 -0.00000 1.28858
						}
					}
				}
			}
		}
	}
	JOINT LowerBack
	{
		OFFSET 0 0 0
		CHANNELS 3 Zrotation Yrotation Xrotation
		JOINT Spine
		{
			OFFSET -0.03798 2.19274 -0.19881
			CHANNELS 3 Zrotation Yrotation Xrotation
			JOINT Spine1
			{
				OFFSET -0.00024 2.19460 0.05248
				CHANNELS 3 Zrotation Yrotation Xrotation
				JOINT Neck
				{
					OFFSET 0 0 0
					CHANNELS 3 Zrotation Yrotation Xrotation
					JOINT Neck1
					{
						OFFSET -0.00746 1.82323 0.17286
						CHANNELS 3 Zrotation Yrotation Xrotation
						JOINT Head
						{
							OFFSET 0.11826 1.82121 -0.27841
							CHANNELS 3 Zrotation Yrotation Xrotation
							End Site
							{
								OFFSET 0.03496 1.85543 -0.11495
							}
						}
					}
				}
				JOINT LeftShoulder
				{
					OFFSET 0 0 0
					CHANNELS 3 Zrotation Yrotation Xrotation
					JOINT LeftArm
					{
						OFFSET 3.71926 0.78840 0.25473
						CHANNELS 3 Zrotation Yrotation Xrotation
						JOINT LeftForeArm
						{
							OFFSET 5.37587 -0.00000 0.00000
							CHANNELS 3 Zrotation Yrotation Xrotation
							JOINT LeftHand
							{
								OFFSET 3.35977 -0.00000 0.00000
								CHANNELS 3 Zrotation Yrotation Xrotation
								JOINT LeftFingerBase
								{
									OFFSET 0 0 0
									CHANNELS 3 Zrotation Yrotation Xrotation
									JOINT LeftHandIndex1
									{
										OFFSET 0.56186 -0.00000 0.00000
										CHANNELS 3 Zrotation Yrotation Xrotation
										End Site
										{
											OFFSET 0.45299 -0.00000 0.00000
										}
									}
								}
								JOINT LThumb
								{
									OFFSET 0 0 0
									CHANNELS 3 Zrotation Yrotation Xrotation
									End Site
									{
										OFFSET 0.45990 -0.00000 0.45990
									}
								}
							}
						}
					}
				}
				JOINT RightShoulder
				{
					OFFSET 0 0 0
					CHANNELS 3 Zrotation Yrotation Xrotation
					JOINT RightArm
					{
						OFFSET -3.65136 0.56074 0.01624
						CHANNELS 3 Zrotation Yrotation Xrotation
						JOINT RightForeArm
						{
							OFFSET -5.22819 -0.00000 0.00000
							CHANNELS 3 Zrotation Yrotation Xrotation
							JOINT RightHand
							{
								OFFSET -3.40764 -0.00000 0.00000
								CHANNELS 3 Zrotation Yrotation Xrotation
								JOINT RightFingerBase
								{
									OFFSET 0 0 0
									CHANNELS 3 Zrotation Yrotation Xrotation
									JOINT RightHandIndex1
									{
										OFFSET -0.58325 -0.00000 0.00000
										CHANNELS 3 Zrotation Yrotation Xrotation
										End Site
										{
											OFFSET -0.47024 -0.00000 0.00000
										}
									}
								}
								JOINT RThumb
								{
									OFFSET 0 0 0
									CHANNELS 3 Zrotation Yrotation Xrotation
									End Site
									{
										OFFSET -0.47742 -0.00000 0.47742
									}
								}
							}
						}
					}
				}
			}
		}
	}
}
MOTION
Frames: 6
Frame Time: .0083333
49.5461 16.7508 -7.3342 -143.0880 -88.6040 140.9070 0.0000 0.0000 0.0000 -18.1488 2.9407 -4.7154 1.1776 6.8876 19.3827 0.5022 4.6755 -15.9164 0.3543 -3.8243 -10.5829 0.0000 0.0000 0.0000 20.3416 3.7604 -8.7273 -2.8824 -10.5021 30.6186 -1.6232 1.1320 -23.7664 -1.0442 -6.4985 18.2378 -0.3453 0.6453 -2.1394 0.7235 0.8261 2.9444 0.9862 0.3777 4.2164 -2.6732 -3.1565 -9.9901 7.2751 -4.6890 8.4050 2.3542 -2.0064 4.3897 0.0000 -0.0000 0.0000 -88.4588 -1.2971 25.8488 13.6629 -22.2508 -2.6991 -0.0000 0.0000 -7.4085 19.9946 17.4276 6.2194 -7.1250 0.0000 -0.0000 -7.7260 48.2984 -0.6321 0.0000 -0.0000 0.0000 88.4011 -0.6017 17.7716 -13.6089 22.1728 -2.6787 0.0000 0.0000 0.3815 -26.3795 3.4850 -1.7268 7.1250 -0.0000 -0.0000 0.1810 -26.0909 0.0830
49.5328 16.7493 -7.3243 -142.9900 -88.5354 140.8190 0.0000 0.0000 0.0000 -18.1283 3.0043 -4.7094 1.1819 6.8997 19.4185 0.5081 4.5985 -15.9352 0.3501 -3.8015 -10.5190 0.0000 0.0000 0.0000 20.3460 3.7460 -8.6857 -2.8790 -10.4965 30.6001 -1.6220 1.2115 -23.7348 -1.0441 -6.4982 18.2369 -0.3392 0.6470 -2.1763 0.7308 0.8292 2.8866 0.9905 0.3802 4.1771 -2.6968 -3.1465 -9.8456 7.3244 -4.6575 8.0832 2.3782 -1.9981 4.2675 -0.0000 0.0000 0.0000 -88.3890 -1.2318 25.8766 13.7194 -22.3322 -2.7206 -0.0000 0.0000 -7.4439 19.9988 17.4379 6.2243 -7.1250 0.0000 -0.0000 -7.7248 48.3098 -0.6342 -0.0000 0.0000 0.0000 88.3505 -0.6814 17.8357 -13.6511 22.2337 -2.6947 0.0000 0.0000 0.3004 -26.3679 3.4557 -1.7115 7.1250 -0.0000 -0.0000 0.1892 -26.1239 0.0866
49.5193 16.7480 -7.3141 -142.8900 -88.4750 140.7390 0.0000 0.0000 0.0000 -18.1151 3.0578 -4.7082 1.1854 6.9094 19.4472 0.5125 4.5210 -15.9349 0.3449 -3.7737 -10.4410 0.0000 0.0000 0.0000 20.3434 3.7340 -8.6528 -2.8756 -10.4909 30.5816 -1.6205 1.2884 -23.7026 -1.0456 -6.5029 18.2507 -0.3415 0.6452 -2.2211 0.7370 0.8280 2.8236 0.9981 0.3802 4.1370 -2.7191 -3.1351 -9.7114 7.3690 -4.6256 7.7900 2.4003 -1.9891 4.1558 -0.0000 0.0000 0.0000 -88.3209 -1.1659 25.8905 13.7752 -22.4124 -2.7418 -0.0000 0.0000 -7.4707 20.0003 17.4292 6.2218 -7.1250 0.0000 -0.0000 -7.7210 48.3010 -0.6322 -0.0000 0.0000 0.0000 88.2997 -0.7597 17.8939 -13.6909 22.2911 -2.7098 0.0000 0.0000 0.2268 -26.3543 3.4225 -1.6941 7.1250 -0.0000 -0.0000 0.1989 -26.1613 0.0908
49.5057 16.7470 -7.3035 -142.7570 -88.4254 140.6350 0.0000 0.0000 0.0000 -18.1110 3.0983 -4.7093 1.1879 6.9164 19.4680 0.5156 4.4440 -15.9195 0.3386 -3.7392 -10.3440 0.0000 0.0000 0.0000 20.3327 3.7222 -8.6282 -2.8723 -10.4853 30.5632 -1.6189 1.3630 -23.6703 -1.0491 -6.5133 18.2812 -0.3522 0.6404 -2.2722 0.7411 0.8234 2.7575 1.0081 0.3784 4.0973 -2.7499 -3.1250 -9.5957 7.4195 -4.5971 7.5303 2.4250 -1.9808 4.0580 -0.0000 -0.0000 0.0000 -88.2527 -1.1059 25.9012 13.8300 -22.4912 -2.7627 -0.0000 0.0000 -7.4964 19.9933 17.4045 6.2110 -7.1250 0.0000 -0.0000 -7.7211 48.2743 -0.6271 -0.0000 -0.0000 0.0000 88.2506 -0.8287 17.9361 -13.7223 22.3363 -2.7217 0.0000 0.0000 0.1716 -26.3471 3.4006 -1.6827 7.1250 -0.0000 -0.0000 0.2039 -26.1859 0.0930
49.4920 16.7460 -7.2926 -142.5090 -88.3860 140.4180 0.0000 0.0000 0.0000 -18.1125 3.1308 -4.7066 1.1896 6.9212 19.4820 0.5181 4.3638 -15.8942 0.3310 -3.6974 -10.2269 0.0000 0.0000 0.0000 20.3159 3.7049 -8.6057 -2.8690 -10.4798 30.5450 -1.6171 1.4368 -23.6364 -1.0538 -6.5275 18.3229 -0.3683 0.6331 -2.3252 0.7431 0.8157 2.6926 1.0189 0.3750 4.0598 -2.7827 -3.1187 -9.4966 7.4724 -4.5753 7.2967 2.4500 -1.9749 3.9715 0.0000 0.0000 0.0000 -88.1817 -1.0520 25.9195 13.8877 -22.5740 -2.7849 -0.0000 0.0000 -7.5276 19.9852 17.3793 6.1997 -7.1250 0.0000 -0.0000 -7.7219 48.2471 -0.6220 0.0000 0.0000 0.0000 88.2054 -0.8838 17.9603 -13.7441 22.3677 -2.7300 0.0000 0.0000 0.1372 -26.3416 3.3812 -1.6727 7.1250 -0.0000 -0.0000 0.2077 -26.2079 0.0946
49.4783 16.7451 -7.2814 -142.1450 -88.3584 140.0850 0.0000 0.0000 0.0000 -18.1190 3.1587 -4.6990 1.1906 6.9240 19.4905 0.5207 4.2745 -15.8658 0.3215 -3.6445 -10.0785 0.0000 0.0000 0.0000 20.2926 3.6794 -8.5840 -2.8657 -10.4744 30.5271 -1.6150 1.5108 -23.6010 -1.0599 -6.5458 18.3766 -0.3930 0.6228 -2.3795 0.7437 0.8044 2.6302 1.0330 0.3694 4.0259 -2.8208 -3.1153 -9.4105 7.5307 -4.5586 7.0853 2.4769 -1.9708 3.8945 -0.0000 0.0000 0.0000 -88.1118 -1.0136 25.9292 13.9409 -22.6502 -2.8053 -0.0000 0.0000 -7.5502 19.9698 17.3437 6.1823 -7.1250 0.0000 -0.0000 -7.7270 48.2078 -0.6149 -0.0000 0.0000 0.0000 88.1661 -0.9219 17.9604 -13.7554 22.3839 -2.7343 0.0000 0.0000 0.1281 -26.3408 3.3641 -1.6642 7.1250 -0.0000 -0.0000 0.2079 -26.2270 0.0946
